<svg width="42" height="42" viewBox="0 0 42 42" fill="none" xmlns="http://www.w3.org/2000/svg">
<g clip-path="url(#clip0_144_398)">
<path d="M39.0719 30.66C38.9898 30.369 38.798 30.1212 38.5369 29.9689C38.2757 29.8165 37.9656 29.7715 37.6719 29.8434L34.7669 30.625C36.3565 28.2818 37.3204 25.5709 37.5669 22.75C37.8052 20.1109 37.4193 17.4527 36.4404 14.9903C35.4615 12.5279 33.9171 10.3303 31.9319 8.57502C31.7024 8.38522 31.409 8.29036 31.1119 8.30988C30.8147 8.32941 30.5362 8.46183 30.3336 8.68002C30.1296 8.91221 30.0261 9.21583 30.0458 9.52424C30.0655 9.83265 30.2068 10.1206 30.4386 10.325C32.1492 11.835 33.48 13.7267 34.3232 15.8468C35.1664 17.967 35.4983 20.256 35.2919 22.5284C35.0921 24.9218 34.2893 27.2256 32.9586 29.225L32.6669 26.2967C32.6889 26.1244 32.6721 25.9493 32.6178 25.7843C32.5635 25.6192 32.473 25.4684 32.353 25.3428C32.2329 25.2172 32.0863 25.12 31.9239 25.0584C31.7615 24.9967 31.5874 24.972 31.4142 24.9862C31.2411 25.0004 31.0733 25.0531 30.9231 25.1405C30.7729 25.2278 30.6441 25.3476 30.5461 25.4911C30.4482 25.6346 30.3835 25.7981 30.3568 25.9698C30.3301 26.1414 30.3421 26.3169 30.3919 26.4834L30.9752 33.9967L38.2669 32.06C38.5557 31.9755 38.8008 31.7827 38.9508 31.5218C39.1008 31.2609 39.1442 30.9522 39.0719 30.66Z" fill="black"/>
<path d="M5.02812 19.9267C5.18317 20.0264 5.35856 20.0902 5.54145 20.1134C5.84593 20.1533 6.15387 20.0716 6.39849 19.886C6.6431 19.7003 6.80466 19.4257 6.84812 19.1217C7.33018 15.5624 9.13905 12.3166 11.9125 10.0342C14.6859 7.75184 18.2192 6.60145 21.8048 6.81339L19.1915 8.59839C19.0065 8.73769 18.8673 8.92885 18.7913 9.14755C18.7154 9.36625 18.7062 9.60259 18.765 9.82651C18.8238 10.0504 18.9479 10.2518 19.1215 10.405C19.2951 10.5581 19.5103 10.6562 19.7398 10.6867C20.0026 10.7107 20.2658 10.6449 20.4864 10.5001L26.7048 6.23005L21.3848 0.88672C21.2901 0.741659 21.1643 0.619498 21.0166 0.529108C20.8688 0.438717 20.7028 0.382364 20.5305 0.36414C20.3582 0.345917 20.1841 0.36628 20.0207 0.423752C19.8573 0.481223 19.7087 0.574361 19.5858 0.696402C19.4629 0.818444 19.3687 0.966327 19.31 1.12931C19.2514 1.2923 19.2297 1.46631 19.2467 1.63869C19.2637 1.81108 19.3189 1.97752 19.4082 2.12593C19.4975 2.27435 19.6187 2.40101 19.7631 2.49672L21.7464 4.48005C17.6058 4.28207 13.5413 5.64365 10.3554 8.296C7.16959 10.9483 5.09389 14.6987 4.53812 18.8067C4.5082 19.0205 4.53817 19.2383 4.62467 19.436C4.71118 19.6338 4.85084 19.8036 5.02812 19.9267Z" fill="black"/>
<path d="M25.3514 34.9183C23.5296 35.5003 21.6079 35.7028 19.7048 35.5133C17.387 35.2861 15.1594 34.4983 13.2142 33.2177C11.269 31.9372 9.66469 30.2025 8.53978 28.1633L11.4448 29.2483C11.7126 29.2948 11.9882 29.2463 12.224 29.1112C12.4598 28.9761 12.6411 28.763 12.7365 28.5085C12.832 28.254 12.8356 27.9742 12.7467 27.7173C12.6578 27.4605 12.4821 27.2427 12.2498 27.1017L6.89477 25.1183L5.17978 24.5L3.88477 31.9083C3.83988 32.2044 3.91052 32.5063 4.08208 32.7517C4.25365 32.9971 4.51299 33.1672 4.80644 33.2267H5.00477C5.27936 33.2317 5.54691 33.1396 5.76032 32.9668C5.97372 32.7939 6.11931 32.5513 6.17144 32.2817L6.66144 29.4817C7.98097 31.7932 9.83439 33.7554 12.0669 35.2045C14.2995 36.6536 16.8463 37.5476 19.4948 37.8117C21.7091 38.0311 23.9448 37.7928 26.0631 37.1117C26.3328 37 26.5509 36.7912 26.6742 36.5266C26.7975 36.262 26.8172 35.9608 26.7293 35.6824C26.6414 35.4041 26.4523 35.1688 26.1994 35.023C25.9464 34.8772 25.6481 34.8315 25.3631 34.895L25.3514 34.9183Z" fill="black"/>
</g>
<defs>
<clipPath id="clip0_144_398">
<rect width="42" height="42" fill="white"/>
</clipPath>
</defs>
</svg>
