<svg width="43" height="42" viewBox="0 0 43 42" fill="none" xmlns="http://www.w3.org/2000/svg">
<path d="M29.8493 36.4542H42.9787V37.787H0.0112305V36.479H6.22379V22.9713H7.59999V12.1753H22.8654V13.4979C23.2783 13.4979 23.6622 13.4765 24.0438 13.4979C24.8187 13.5497 25.6282 13.5047 26.3568 13.7174C28.2291 14.2645 29.3509 15.5432 29.7395 17.4163C29.7499 17.4658 29.7672 17.5153 29.7846 17.5784C29.8459 17.5558 29.8933 17.5525 29.9199 17.5277C31.0255 16.5079 32.3485 16.133 33.8519 16.1882C34.8013 16.2231 35.7543 16.1949 36.7014 16.1949C37.0622 18.4856 35.575 20.8191 33.1719 21.4134C32.5659 21.5642 31.9159 21.5575 31.2845 21.5924C30.8127 21.6194 30.3385 21.5924 29.8447 21.5924V24.1712C30.5386 23.8335 31.2244 23.4159 31.9645 23.1469C32.4491 22.9713 33.0123 22.9657 33.5419 22.951C34.5943 22.924 35.6479 22.9431 36.6968 22.9431C37.0195 24.8669 35.9786 26.8998 34.1075 27.8262C33.41 28.1722 32.6375 28.3506 31.8547 28.3462H29.8459L29.8493 36.4542ZM21.4672 36.4407V13.5182H9.03517V22.9679H18.7333V36.4407H21.4672ZM7.65088 24.3232V36.4283H17.3132V24.3232H7.65088ZM28.4014 36.4508V25.6447C26.4424 25.7032 24.4694 25.8338 22.9186 24.2511V36.4508H28.4014ZM22.9174 17.5142V20.2675C24.8834 20.209 26.8494 20.0739 28.4141 21.6746V18.8199C27.4288 18.8199 26.4609 18.8841 25.5056 18.8031C24.518 18.7186 23.6958 18.2087 22.9174 17.5142ZM28.3251 17.4714C28.0684 16.2208 27.0218 15.1425 25.7034 14.9477C24.8164 14.8172 23.9028 14.8532 22.988 14.8138C23.1881 16.1173 24.2936 17.2688 25.6479 17.45C26.5175 17.566 27.4219 17.4714 28.3216 17.4714H28.3251ZM29.9442 20.236C30.7236 20.236 31.5065 20.2923 32.2768 20.2225C33.4228 20.12 34.3122 19.5471 34.8985 18.5734C35.08 18.2718 35.1853 17.9273 35.346 17.5603C34.5122 17.5603 33.7744 17.5288 33.0423 17.5671C31.5077 17.6448 30.113 18.8616 29.9407 20.236H29.9442ZM23.0019 21.6813C23.2563 22.9285 24.3029 24.008 25.6236 24.2039C26.5106 24.3367 27.4242 24.2995 28.3401 24.3389C28.1354 23.031 27.0322 21.8817 25.6803 21.7027C24.806 21.5868 23.9016 21.6813 23.0019 21.6813ZM29.9314 26.9977C30.6982 26.9977 31.4349 27.0315 32.1681 26.9909C33.7015 26.9076 35.0905 25.6942 35.2651 24.3198C34.4856 24.3198 33.7038 24.2647 32.9313 24.3311C32.2008 24.3969 31.5123 24.6929 30.9702 25.1742C30.4282 25.6554 30.0623 26.2957 29.928 26.9977H29.9314Z" fill="black"/>
<path d="M4.90296 26.973C4.7584 26.9899 4.69017 27.0045 4.62194 27.0045H0.86919C-1.15116 19.546 0.337215 12.8766 5.47426 6.91186L4.10615 5.73106L12.0395 3.79834L10.0735 11.4583L8.47414 9.78336C7.39837 10.951 6.50488 12.2663 5.82236 13.6871C4.0518 17.3961 3.69792 21.2356 4.70405 25.2069C4.84514 25.7731 4.84514 26.3719 4.90296 26.973ZM3.35908 25.6549C1.78165 18.8448 3.42615 12.9442 8.43945 7.80336L9.30796 8.8761C9.60402 7.71894 9.86191 6.70699 10.1314 5.65002L6.92678 6.43796L7.38937 6.9445C7.27373 7.0672 7.1708 7.16963 7.08176 7.27431C6.20631 8.3538 5.24643 9.38151 4.47622 10.5285C2.56342 13.3775 1.59199 16.5473 1.40001 19.9389C1.29505 21.754 1.46336 23.5742 1.89961 25.3419C1.92968 25.4601 2.05804 25.6369 2.15287 25.6447C2.5507 25.674 2.952 25.6549 3.35908 25.6549Z" fill="black"/>
<path d="M37.4921 32.9523L38.8105 34.1275L30.9546 36.0411C31.6115 33.4825 32.2533 30.9757 32.9113 28.4115L34.5188 30.0459C35.6024 28.8676 36.5014 27.54 37.1868 26.1062C38.9481 22.3916 39.3008 18.5644 38.2808 14.5909C38.1397 14.0416 38.1548 13.4551 38.0946 12.8518H42.133C44.1499 20.281 42.6615 26.9572 37.4921 32.9523ZM35.6105 32.8972C41.8324 26.8187 42.3794 18.973 40.9881 14.1733H39.6362C41.2113 20.9981 39.5622 26.893 34.5327 32.0507L33.685 30.9678C33.3913 32.1126 33.1345 33.1156 32.8616 34.1827L36.0812 33.3947L35.6105 32.8972Z" fill="black"/>
<path d="M15.2754 0.890986C21.289 -0.931423 29.5185 -0.195256 35.8606 5.326C36.2422 4.91739 36.6285 4.50654 37.017 4.09568L37.1535 4.14408C37.7965 6.6475 38.4407 9.15092 39.101 11.723L31.37 9.84319L33.0515 8.22452C32.0107 7.53225 31.1549 6.86813 30.2135 6.34245C26.0919 4.04277 21.7077 3.47995 17.0934 4.59434C16.8846 4.64914 16.6708 4.68345 16.455 4.69677C16.0699 4.71365 15.6836 4.69677 15.2754 4.69677V0.890986ZM33.9443 9.07663L37.1963 9.86458C36.9187 8.79072 36.6608 7.7889 36.3868 6.74656L35.864 7.19681C35.7484 7.09888 35.6628 7.00883 35.5622 6.93229C34.4404 6.07118 33.3753 5.13127 32.1853 4.36921C29.2467 2.49727 25.9751 1.55511 22.4709 1.36938C20.6214 1.2714 18.767 1.43597 16.9662 1.85791C16.8389 1.8883 16.6585 2.03463 16.6481 2.14157C16.623 2.52002 16.6176 2.89948 16.6319 3.27846C23.6344 1.74197 29.7 3.34488 34.9805 8.23127L33.9443 9.07663Z" fill="black"/>
<path d="M0.0078125 41.8349V40.5359H42.988V41.8349H0.0078125Z" fill="black"/>
<path d="M13.1914 18.8719V17.5718H14.526V18.8719H13.1914Z" fill="black"/>
<path d="M18.7319 18.8741V17.5852H20.0792V18.8741H18.7319Z" fill="black"/>
<path d="M10.417 21.5791V20.2834H11.7562V21.5791H10.417Z" fill="black"/>
<path d="M15.9692 18.8761V17.5828H17.3061V18.8761H15.9692Z" fill="black"/>
<path d="M17.3116 21.5845H15.9771V20.2776H17.3116V21.5845Z" fill="black"/>
<path d="M18.7446 21.5778V20.2844H20.0815V21.5778H18.7446Z" fill="black"/>
<path d="M10.4263 14.8679H11.762V16.1669H10.4263V14.8679Z" fill="black"/>
<path d="M14.5389 14.8726V16.1682H13.1997V14.8726H14.5389Z" fill="black"/>
<path d="M13.1982 20.2598H14.5247V21.5734H13.1982V20.2598Z" fill="black"/>
<path d="M17.3141 14.877V16.1782H15.9795V14.877H17.3141Z" fill="black"/>
<path d="M20.0897 14.8726V16.1682H18.7505V14.8726H20.0897Z" fill="black"/>
<path d="M11.7528 18.8832H10.4194V17.5842H11.7528V18.8832Z" fill="black"/>
<path d="M10.374 26.9877H9.03711V25.6797H10.374V26.9877Z" fill="black"/>
<path d="M13.1453 26.9977H11.8188V25.6841H13.1453V26.9977Z" fill="black"/>
<path d="M9.04297 28.3711H10.3694V29.6847H9.04297V28.3711Z" fill="black"/>
<path d="M11.8022 29.6768V28.3789H13.1368V29.6768H11.8022Z" fill="black"/>
<path d="M14.5688 29.6725V28.3882H15.9184V29.6725H14.5688Z" fill="black"/>
<path d="M10.374 32.391H9.03711V31.083H10.374V32.391Z" fill="black"/>
<path d="M15.9216 26.9841H14.5928V25.6829H15.9216V26.9841Z" fill="black"/>
<path d="M15.9173 32.3898H14.5815V31.0908H15.9173V32.3898Z" fill="black"/>
<path d="M10.3731 35.0923H9.03857V33.7854H10.3731V35.0923Z" fill="black"/>
<path d="M11.8013 35.0788V33.7832H13.1509V35.0788H11.8013Z" fill="black"/>
<path d="M14.5884 33.7798H15.9253V35.0788H14.5884V33.7798Z" fill="black"/>
<path d="M11.8115 31.0671H13.1357V32.3785H11.8115V31.0671Z" fill="black"/>
</svg>
