<svg width="846" height="282" viewBox="0 0 846 282" fill="none" xmlns="http://www.w3.org/2000/svg">
<path d="M326 149.095V167.288L339.343 154.591L326 149.095ZM440.835 166.871L441.349 166.68V149.095L427.982 154.63L440.835 166.871Z" fill="white"/>
<path d="M355.818 117.105L341.404 151.69L326.346 145.495C328.234 140.947 330.079 136.49 331.934 132.037C341.803 108.367 351.657 84.6914 361.498 61.0089C361.801 60.1583 361.772 59.2252 361.416 58.3949C355.91 46.991 359.494 33.7342 370.094 26.7539C371.055 26.1076 371.482 25.4661 371.415 24.3123C371.314 22.7036 371.362 21.0807 371.415 19.4673C371.463 17.399 372.563 16.2692 374.629 16.116C375.35 16.0729 376.071 16.116 376.791 16.116H379.228V9.99267C379.228 8.25957 379.199 6.52169 379.228 4.78859C379.3 1.91606 381.149 -0.0516311 383.725 0.00103204C386.3 0.0536952 388.049 1.96873 388.049 4.7503C388.092 8.45108 388.049 12.1519 388.049 16.1303C389.543 16.1303 390.898 16.1064 392.253 16.1303C394.771 16.1782 396.068 17.2937 395.838 19.7737C395.468 23.6995 396.515 26.3326 399.912 29.0089C408.595 35.8503 410.81 48.1352 405.904 58.1508C405.637 58.6326 405.491 59.1717 405.479 59.7218C405.466 60.272 405.587 60.8171 405.832 61.3105C417.296 88.7209 428.735 116.139 440.148 143.566C440.374 144.116 440.575 144.676 440.888 145.481L425.892 151.704L411.228 116.588C410.921 116.67 410.621 116.774 410.329 116.899C404.761 119.98 398.755 122.199 392.518 123.482C392.236 123.57 391.978 123.719 391.761 123.918C391.543 124.116 391.372 124.359 391.259 124.631C389.885 128.853 386.728 131.377 382.73 131.333C378.809 131.286 375.662 128.743 374.365 124.631C374.23 124.195 373.885 123.558 373.543 123.487C367.364 122.198 361.397 120.05 355.818 117.105ZM409.781 113.088L392.201 70.9575C389.207 71.3549 386.435 72.0155 383.662 72.0107C380.89 72.0059 378.017 71.3453 375.042 70.9527L357.164 113.849C362.699 116.837 368.33 119.034 374.461 120.126C376.051 116.296 378.733 113.978 382.966 114.022C387.199 114.065 389.74 116.554 391.259 120.183C397.63 119.063 405.452 116.09 409.781 113.088ZM383.658 61.0329C386.368 61.0338 389.019 60.2339 391.273 58.7343C393.528 57.2346 395.286 55.1025 396.324 52.6076C397.363 50.1127 397.636 47.3669 397.109 44.7175C396.581 42.068 395.278 39.6337 393.362 37.7224C391.447 35.8111 389.006 34.5086 386.347 33.9796C383.689 33.4506 380.933 33.7187 378.428 34.7502C375.922 35.7817 373.78 37.5301 372.272 39.7745C370.764 42.0189 369.957 44.6585 369.954 47.3596C369.951 49.1545 370.303 50.9323 370.99 52.5914C371.678 54.2505 372.687 55.7582 373.96 57.0283C375.232 58.2984 376.744 59.3058 378.408 59.993C380.072 60.6801 381.856 61.0335 383.658 61.0329Z" fill="#D83434"/>
<path d="M326 149.095L339.343 154.615L326 167.312V149.095Z" fill="#D83434"/>
<path d="M440.835 166.871L427.982 154.63L441.315 149.095V166.68L440.835 166.871Z" fill="#D83434"/>
<path d="M393.815 47.4745C393.799 49.4847 393.184 51.4449 392.05 53.1071C390.915 54.7692 389.31 56.0584 387.44 56.8117C385.569 57.5649 383.517 57.7483 381.541 57.3385C379.566 56.9288 377.758 55.9443 376.344 54.5098C374.931 53.0753 373.976 51.2552 373.601 49.28C373.227 47.3047 373.448 45.263 374.239 43.4133C375.029 41.5637 376.352 39.9892 378.041 38.8892C379.729 37.7892 381.708 37.2131 383.725 37.2339C386.424 37.2655 389 38.3605 390.891 40.2795C392.782 42.1985 393.833 44.7853 393.815 47.4745Z" fill="#D83434"/>
<path d="M409 86.5L454.023 31.5815C454.245 31.3111 454.658 31.3329 454.809 31.6486C458.221 38.8111 489.388 104.01 521 162.784" stroke="#D83434" stroke-width="15.487"/>
<path d="M248.75 262.312L248.675 209.812H242.525L220.925 246.712L199.025 209.812H192.875V262.312H200.075V224.287L219.05 255.937H222.5L241.475 224.062L241.55 262.312H248.75ZM272.006 255.787V238.837H298.331V232.462H272.006V216.337H301.556V209.812H264.506V262.312H302.606V255.787H272.006ZM353.975 262.312H361.85L338 209.812H330.575L306.8 262.312H314.525L320.3 249.187H348.2L353.975 262.312ZM322.925 243.187L334.25 217.462L345.575 243.187H322.925ZM384.982 262.912C398.857 262.912 405.307 256.012 405.307 247.987C405.307 228.712 373.507 236.737 373.507 223.912C373.507 219.337 377.332 215.587 386.257 215.587C390.907 215.587 396.082 216.937 400.657 219.862L403.132 213.862C398.782 210.862 392.407 209.212 386.257 209.212C372.457 209.212 366.157 216.112 366.157 224.212C366.157 243.712 397.957 235.612 397.957 248.437C397.957 253.012 394.057 256.537 384.982 256.537C378.232 256.537 371.557 253.987 367.657 250.462L364.882 256.312C369.082 260.212 376.957 262.912 384.982 262.912ZM438.014 262.912C451.889 262.912 460.214 254.887 460.214 239.662V209.812H452.939V239.362C452.939 250.987 447.539 256.237 438.089 256.237C428.639 256.237 423.314 250.987 423.314 239.362V209.812H415.814V239.662C415.814 254.887 424.214 262.912 438.014 262.912ZM518.865 262.312L506.415 244.687C513.765 242.062 517.965 236.212 517.965 228.112C517.965 216.712 509.715 209.812 496.065 209.812H475.59V262.312H483.09V246.337H496.065C497.19 246.337 498.315 246.262 499.365 246.187L510.69 262.312H518.865ZM495.84 239.962H483.09V216.337H495.84C505.44 216.337 510.465 220.612 510.465 228.112C510.465 235.612 505.44 239.962 495.84 239.962ZM537.582 255.787V238.837H563.907V232.462H537.582V216.337H567.132V209.812H530.082V262.312H568.182V255.787H537.582ZM636.201 262.312L636.126 209.812H629.976L608.376 246.712L586.476 209.812H580.326V262.312H587.526V224.287L606.501 255.937H609.951L628.926 224.062L629.001 262.312H636.201ZM659.457 255.787V238.837H685.782V232.462H659.457V216.337H689.007V209.812H651.957V262.312H690.057V255.787H659.457ZM739.851 209.812V248.962L708.351 209.812H702.201V262.312H709.701V223.162L741.201 262.312H747.351V209.812H739.851ZM773.49 262.312H780.915V216.337H798.915V209.812H755.49V216.337H773.49V262.312ZM821.725 262.912C835.6 262.912 842.05 256.012 842.05 247.987C842.05 228.712 810.25 236.737 810.25 223.912C810.25 219.337 814.075 215.587 823 215.587C827.65 215.587 832.825 216.937 837.4 219.862L839.875 213.862C835.525 210.862 829.15 209.212 823 209.212C809.2 209.212 802.9 216.112 802.9 224.212C802.9 243.712 834.7 235.612 834.7 248.437C834.7 253.012 830.8 256.537 821.725 256.537C814.975 256.537 808.3 253.987 804.4 250.462L801.625 256.312C805.825 260.212 813.7 262.912 821.725 262.912Z" fill="black"/>
<path d="M48.1 262.312H55.975L32.125 209.812H24.7L0.925 262.312H8.65L14.425 249.187H42.325L48.1 262.312ZM17.05 243.187L28.375 217.462L39.7 243.187H17.05ZM107.082 262.312L94.6316 244.687C101.982 242.062 106.182 236.212 106.182 228.112C106.182 216.712 97.9316 209.812 84.2816 209.812H63.8066V262.312H71.3066V246.337H84.2816C85.4066 246.337 86.5316 246.262 87.5816 246.187L98.9066 262.312H107.082ZM84.0566 239.962H71.3066V216.337H84.0566C93.6566 216.337 98.6816 220.612 98.6816 228.112C98.6816 235.612 93.6566 239.962 84.0566 239.962ZM141.774 262.912C149.949 262.912 156.999 260.062 161.799 254.662L156.924 249.937C152.874 254.212 147.924 256.237 142.149 256.237C130.299 256.237 121.524 247.687 121.524 236.062C121.524 224.437 130.299 215.887 142.149 215.887C147.924 215.887 152.874 217.837 156.924 222.112L161.799 217.387C156.999 211.987 149.949 209.212 141.849 209.212C125.874 209.212 114.024 220.537 114.024 236.062C114.024 251.587 125.874 262.912 141.774 262.912Z" fill="black"/>
</svg>
