<svg width="42" height="42" viewBox="0 0 42 42" fill="none" xmlns="http://www.w3.org/2000/svg">
<path d="M35.3008 11.8125H32.0441L24.0536 19.7995C24.3288 20.5009 24.3541 21.2756 24.1253 21.9935C23.8964 22.7113 23.4274 23.3285 22.797 23.7412C22.1666 24.1539 21.4134 24.3369 20.6639 24.2596C19.9145 24.1822 19.2145 23.8491 18.6817 23.3163C18.149 22.7836 17.8159 22.0836 17.7385 21.3342C17.6612 20.5847 17.8442 19.8314 18.2569 19.2011C18.6696 18.5707 19.2868 18.1017 20.0046 17.8728C20.7225 17.644 21.4972 17.6693 22.1986 17.9445L30.1873 9.95574V6.69899C30.1875 6.26321 30.3606 5.84529 30.6686 5.53699L33.6961 2.50949C33.752 2.45294 33.8223 2.41277 33.8995 2.39334C33.9766 2.3739 34.0575 2.37595 34.1336 2.39924C34.2893 2.44474 34.4048 2.57424 34.4363 2.73349L35.2413 6.76024L39.2663 7.56524C39.4238 7.59674 39.5533 7.71224 39.5988 7.86799C39.6218 7.94365 39.6239 8.02412 39.6048 8.10085C39.5857 8.17758 39.5461 8.24769 39.4903 8.30374L36.4611 11.3312C36.3088 11.4838 36.128 11.6048 35.9289 11.6874C35.7298 11.7699 35.5164 11.8125 35.3008 11.8125Z" fill="black"/>
<path d="M4.59375 21C4.59375 25.3512 6.32226 29.5242 9.39903 32.601C12.4758 35.6778 16.6488 37.4063 21 37.4063C23.1545 37.4063 25.2879 36.9819 27.2784 36.1574C29.2689 35.3329 31.0775 34.1244 32.601 32.601C34.1244 31.0775 35.3329 29.2689 36.1574 27.2784C36.9819 25.2879 37.4062 23.1545 37.4062 21C37.4063 19.4285 37.1857 17.9095 36.7745 16.4728C36.6928 16.1429 36.7422 15.7941 36.9123 15.4999C37.0825 15.2057 37.3601 14.989 37.6869 14.8954C38.0136 14.8017 38.3639 14.8385 38.664 14.9979C38.9642 15.1573 39.1908 15.4269 39.2962 15.75C39.7757 17.4195 40.0312 19.18 40.0312 21C40.0312 31.5105 31.5105 40.0313 21 40.0313C10.4895 40.0313 1.96875 31.5105 1.96875 21C1.96875 10.4895 10.4895 1.96876 21 1.96876C22.7762 1.96701 24.542 2.21376 26.25 2.70201C26.4165 2.74872 26.5722 2.82789 26.708 2.93497C26.8439 3.04204 26.9572 3.17491 27.0415 3.32593C27.1258 3.47695 27.1795 3.64315 27.1993 3.81497C27.2192 3.98678 27.2049 4.16083 27.1573 4.32711C27.1097 4.49339 27.0296 4.64861 26.9218 4.78386C26.814 4.91911 26.6805 5.03172 26.529 5.1152C26.3776 5.19869 26.2111 5.25142 26.0392 5.27035C25.8672 5.28928 25.6933 5.27404 25.5272 5.22551C24.055 4.80503 22.5311 4.59239 21 4.59376C16.6488 4.59376 12.4758 6.32227 9.39903 9.39904C6.32226 12.4758 4.59375 16.6488 4.59375 21Z" fill="black"/>
<path d="M12.4685 20.9999C12.4734 22.1589 12.7145 23.3049 13.177 24.3676C13.6396 25.4304 14.3138 26.3878 15.1587 27.1813C16.0036 27.9748 17.0013 28.5878 18.091 28.9828C19.1807 29.3778 20.3395 29.5466 21.4966 29.4788C22.6537 29.4111 23.7848 29.1082 24.8209 28.5887C25.8571 28.0692 26.7765 27.344 27.523 26.4573C28.2694 25.5706 28.8274 24.5411 29.1627 23.4316C29.498 22.3221 29.6037 21.1558 29.4733 20.0041C29.4365 19.7709 29.4636 19.532 29.5515 19.3129C29.6395 19.0937 29.7851 18.9025 29.9729 18.7593C30.1607 18.6162 30.3837 18.5265 30.6183 18.4998C30.8529 18.4731 31.0904 18.5104 31.3055 18.6076C31.7448 18.8036 32.0405 19.2219 32.079 19.7014C32.3508 22.0031 31.8987 24.3322 30.7856 26.3651C29.6725 28.398 27.9538 30.0336 25.8682 31.0446C23.7827 32.0556 21.434 32.3918 19.1486 32.0064C16.8632 31.621 14.7547 30.5332 13.116 28.8941C11.4779 27.2569 10.3898 25.1504 10.0027 22.8669C9.61556 20.5834 9.94864 18.236 10.9557 16.1504C11.9628 14.0647 13.5939 12.3441 15.6229 11.2272C17.6519 10.1102 19.9781 9.65241 22.279 9.91713C22.453 9.93327 22.622 9.98397 22.776 10.0663C22.9301 10.1485 23.0663 10.2608 23.1764 10.3963C23.2866 10.5319 23.3686 10.6881 23.4176 10.8558C23.4666 11.0235 23.4816 11.1992 23.4618 11.3728C23.442 11.5464 23.3878 11.7142 23.3023 11.8665C23.2167 12.0189 23.1017 12.1526 22.9638 12.2599C22.8259 12.3671 22.668 12.4458 22.4994 12.4913C22.3307 12.5367 22.1546 12.5481 21.9815 12.5246C20.7863 12.3864 19.5754 12.5026 18.4283 12.8654C17.2811 13.2283 16.2237 13.8296 15.3253 14.6299C14.427 15.4303 13.708 16.4116 13.2157 17.5094C12.7233 18.6072 12.4687 19.7967 12.4685 20.9999Z" fill="black"/>
</svg>
