<svg width="15" height="14" viewBox="0 0 15 14" fill="none" xmlns="http://www.w3.org/2000/svg">
<path d="M5.9375 1.14062C5.625 1.45312 5.65625 1.92188 5.9375 2.23438L9.71875 5.79688H0.75C0.3125 5.79688 0 6.14062 0 6.54688V7.54688C0 7.98438 0.3125 8.29688 0.75 8.29688H9.71875L5.9375 11.8906C5.65625 12.2031 5.65625 12.6719 5.9375 12.9844L6.625 13.6719C6.9375 13.9531 7.40625 13.9531 7.6875 13.6719L13.7812 7.57812C14.0625 7.29688 14.0625 6.82812 13.7812 6.51562L7.6875 0.453125C7.40625 0.171875 6.9375 0.171875 6.625 0.453125L5.9375 1.14062Z" fill="#2F3035"/>
</svg>
